<?xml version="1.0" encoding="UTF-8" standalone="no"?>
<!DOCTYPE svg PUBLIC "-//W3C//DTD SVG 1.1//EN" "http://www.w3.org/Graphics/SVG/1.1/DTD/svg11.dtd">
<svg width="100%" height="100%" viewBox="0 0 450 90" version="1.1" xmlns="http://www.w3.org/2000/svg" xmlns:xlink="http://www.w3.org/1999/xlink" xml:space="preserve" xmlns:serif="http://www.serif.com/" style="fill-rule:evenodd;clip-rule:evenodd;stroke-linejoin:round;stroke-miterlimit:2;">
    <g transform="matrix(1,0,0,1,-44.3464,-0.585937)">
        <g transform="matrix(1,0,0,1,-37.5985,67.9423)">
            <g transform="matrix(106.667,0,0,106.667,101.789,18.2166)">
                <path d="M0.158,-0L0.158,-0.252L0,-0.748L0.184,-0.748L0.22,-0.574C0.234,-0.503 0.243,-0.449 0.248,-0.412L0.252,-0.412C0.257,-0.445 0.267,-0.499 0.282,-0.574L0.318,-0.748L0.5,-0.748L0.338,-0.252L0.338,-0L0.158,-0Z" style="fill:rgb(255,0,0);fill-rule:nonzero;"/>
            </g>
            <g transform="matrix(106.667,0,0,106.667,148.768,18.2166)">
                <path d="M0.25,0.012C0.186,0.012 0.133,-0.014 0.089,-0.066C0.046,-0.118 0.024,-0.191 0.024,-0.286C0.024,-0.381 0.046,-0.455 0.089,-0.506C0.133,-0.558 0.186,-0.584 0.25,-0.584C0.314,-0.584 0.368,-0.558 0.411,-0.507C0.454,-0.455 0.476,-0.382 0.476,-0.286C0.476,-0.19 0.454,-0.117 0.411,-0.065C0.368,-0.014 0.314,0.012 0.25,0.012ZM0.25,-0.132C0.279,-0.132 0.294,-0.183 0.294,-0.286C0.294,-0.39 0.279,-0.442 0.25,-0.442C0.234,-0.442 0.223,-0.43 0.216,-0.405C0.209,-0.38 0.206,-0.34 0.206,-0.286C0.206,-0.232 0.209,-0.193 0.216,-0.168C0.223,-0.144 0.234,-0.132 0.25,-0.132Z" style="fill:rgb(255,0,0);fill-rule:nonzero;"/>
            </g>
            <g transform="matrix(106.667,0,0,106.667,202.101,18.2166)">
                <path d="M0.004,-0L0.004,-0.572L0.12,-0.572L0.134,-0.5L0.138,-0.5C0.151,-0.556 0.184,-0.584 0.235,-0.584C0.256,-0.584 0.272,-0.576 0.286,-0.56C0.299,-0.544 0.307,-0.521 0.311,-0.492C0.313,-0.518 0.323,-0.54 0.34,-0.558C0.357,-0.575 0.377,-0.584 0.4,-0.584C0.43,-0.584 0.454,-0.57 0.471,-0.543C0.488,-0.516 0.496,-0.478 0.496,-0.43L0.496,-0L0.35,-0L0.35,-0.398C0.35,-0.422 0.343,-0.434 0.33,-0.434C0.315,-0.434 0.308,-0.42 0.308,-0.392L0.308,-0L0.192,-0L0.192,-0.398C0.192,-0.422 0.186,-0.434 0.172,-0.434C0.158,-0.434 0.15,-0.42 0.15,-0.392L0.15,-0L0.004,-0Z" style="fill:rgb(255,0,0);fill-rule:nonzero;"/>
            </g>
            <g transform="matrix(106.667,0,0,106.667,255.434,18.2166)">
                <path d="M0.157,0.012C0.07,0.012 0.026,-0.052 0.026,-0.18L0.026,-0.572L0.206,-0.572L0.206,-0.202C0.206,-0.179 0.208,-0.162 0.212,-0.152C0.216,-0.143 0.224,-0.138 0.235,-0.138C0.253,-0.138 0.266,-0.153 0.274,-0.184L0.274,-0.572L0.454,-0.572L0.454,-0L0.31,-0L0.298,-0.064L0.294,-0.064C0.256,-0.014 0.211,0.012 0.157,0.012Z" style="fill:rgb(255,0,0);fill-rule:nonzero;"/>
            </g>
            <g transform="matrix(106.667,0,0,106.667,306.684,18.2166)">
                <path d="M0.16,-0L0.16,-0.598L0.016,-0.598L0.016,-0.748L0.484,-0.748L0.484,-0.598L0.34,-0.598L0.34,-0L0.16,-0Z" style="fill:rgb(255,0,0);fill-rule:nonzero;"/>
            </g>
            <g transform="matrix(106.667,0,0,106.667,355.747,18.2166)">
                <path d="M0.157,0.012C0.07,0.012 0.026,-0.052 0.026,-0.18L0.026,-0.572L0.206,-0.572L0.206,-0.202C0.206,-0.179 0.208,-0.162 0.212,-0.152C0.216,-0.143 0.224,-0.138 0.235,-0.138C0.253,-0.138 0.266,-0.153 0.274,-0.184L0.274,-0.572L0.454,-0.572L0.454,-0L0.31,-0L0.298,-0.064L0.294,-0.064C0.256,-0.014 0.211,0.012 0.157,0.012Z" style="fill:rgb(255,0,0);fill-rule:nonzero;"/>
            </g>
            <g transform="matrix(106.667,0,0,106.667,409.08,18.2166)">
                <path d="M0.3,0.014C0.26,0.014 0.226,-0.011 0.198,-0.06L0.192,-0.06L0.18,-0L0.04,-0L0.04,-0.774L0.218,-0.774L0.218,-0.62L0.214,-0.534C0.242,-0.567 0.272,-0.584 0.306,-0.584C0.358,-0.584 0.4,-0.56 0.43,-0.511C0.46,-0.462 0.476,-0.39 0.476,-0.296C0.476,-0.194 0.458,-0.117 0.424,-0.064C0.39,-0.012 0.349,0.014 0.3,0.014ZM0.248,-0.132C0.255,-0.132 0.262,-0.136 0.268,-0.145C0.274,-0.153 0.28,-0.17 0.285,-0.195C0.29,-0.221 0.292,-0.253 0.292,-0.292C0.292,-0.391 0.279,-0.44 0.254,-0.44C0.24,-0.44 0.228,-0.428 0.218,-0.402L0.218,-0.166C0.224,-0.143 0.234,-0.132 0.248,-0.132Z" style="fill:rgb(255,0,0);fill-rule:nonzero;"/>
            </g>
            <g transform="matrix(106.667,0,0,106.667,462.414,18.2166)">
                <path d="M0.281,0.012C0.209,0.012 0.149,-0.015 0.102,-0.068C0.054,-0.122 0.03,-0.194 0.03,-0.286C0.03,-0.375 0.053,-0.447 0.099,-0.502C0.144,-0.557 0.199,-0.584 0.262,-0.584C0.327,-0.584 0.378,-0.559 0.413,-0.508C0.448,-0.457 0.466,-0.391 0.466,-0.31C0.466,-0.285 0.464,-0.26 0.46,-0.232L0.203,-0.232C0.214,-0.159 0.248,-0.122 0.305,-0.122C0.328,-0.122 0.355,-0.131 0.387,-0.148L0.446,-0.042C0.399,-0.006 0.344,0.012 0.281,0.012ZM0.2,-0.352L0.316,-0.352C0.316,-0.417 0.299,-0.45 0.265,-0.45C0.248,-0.45 0.234,-0.442 0.222,-0.425C0.21,-0.408 0.203,-0.383 0.2,-0.352Z" style="fill:rgb(255,0,0);fill-rule:nonzero;"/>
            </g>
        </g>
        <g transform="matrix(1,0,0,1,99.8094,40.2846)">
            <g transform="matrix(21.3333,0,0,21.3333,16.9224,42.6451)">
                <path d="M0.222,0.22C0.166,0.22 0.118,0.208 0.08,0.186C0.042,0.164 0.022,0.13 0.022,0.086C0.022,0.039 0.044,0.002 0.088,-0.026L0.088,-0.031C0.057,-0.052 0.041,-0.084 0.041,-0.128C0.041,-0.172 0.061,-0.207 0.1,-0.235L0.1,-0.239C0.055,-0.271 0.032,-0.319 0.032,-0.384C0.032,-0.45 0.052,-0.5 0.091,-0.534C0.131,-0.567 0.178,-0.584 0.232,-0.584C0.257,-0.584 0.278,-0.58 0.296,-0.572L0.48,-0.572L0.48,-0.442L0.404,-0.442C0.415,-0.422 0.42,-0.399 0.42,-0.374C0.42,-0.314 0.403,-0.269 0.369,-0.238C0.334,-0.207 0.293,-0.191 0.244,-0.191C0.222,-0.191 0.203,-0.194 0.188,-0.199C0.183,-0.185 0.18,-0.173 0.18,-0.162C0.18,-0.148 0.184,-0.138 0.194,-0.131C0.203,-0.125 0.22,-0.122 0.244,-0.122L0.311,-0.122C0.426,-0.122 0.484,-0.073 0.484,0.025C0.484,0.083 0.46,0.129 0.413,0.166C0.365,0.202 0.301,0.22 0.222,0.22ZM0.206,-0.315C0.212,-0.302 0.221,-0.296 0.232,-0.296C0.244,-0.296 0.253,-0.302 0.258,-0.315C0.263,-0.328 0.266,-0.351 0.266,-0.384C0.266,-0.44 0.255,-0.468 0.232,-0.468C0.221,-0.468 0.212,-0.462 0.207,-0.449C0.201,-0.437 0.198,-0.415 0.198,-0.384C0.198,-0.351 0.201,-0.328 0.206,-0.315ZM0.24,0.11C0.261,0.11 0.279,0.105 0.293,0.094C0.307,0.083 0.314,0.071 0.314,0.056C0.314,0.039 0.309,0.028 0.299,0.022C0.289,0.017 0.273,0.014 0.251,0.014L0.246,0.014C0.215,0.014 0.193,0.011 0.182,0.007C0.173,0.02 0.168,0.037 0.168,0.058C0.168,0.074 0.174,0.087 0.188,0.096C0.201,0.106 0.218,0.11 0.24,0.11Z" style="fill:rgb(102,102,102);fill-opacity:0.87;fill-rule:nonzero;"/>
            </g>
            <g transform="matrix(21.3333,0,0,21.3333,27.5891,42.6451)">
                <path d="M0.202,-0L0.202,-0.432L0.052,-0.432L0.052,-0.572L0.382,-0.572L0.382,-0L0.202,-0ZM0.357,-0.678C0.339,-0.661 0.314,-0.652 0.284,-0.652C0.254,-0.652 0.23,-0.661 0.21,-0.678C0.191,-0.695 0.182,-0.717 0.182,-0.744C0.182,-0.771 0.191,-0.793 0.21,-0.811C0.23,-0.829 0.254,-0.838 0.284,-0.838C0.314,-0.838 0.339,-0.829 0.357,-0.811C0.376,-0.793 0.386,-0.771 0.386,-0.744C0.386,-0.717 0.376,-0.695 0.357,-0.678Z" style="fill:rgb(102,102,102);fill-opacity:0.87;fill-rule:nonzero;"/>
            </g>
            <g transform="matrix(21.3333,0,0,21.3333,38.2557,42.6451)">
                <path d="M0.144,-0L0.004,-0.572L0.182,-0.572L0.224,-0.308C0.226,-0.289 0.231,-0.261 0.237,-0.222C0.243,-0.183 0.247,-0.153 0.25,-0.132L0.254,-0.132C0.264,-0.191 0.272,-0.25 0.28,-0.308L0.324,-0.572L0.496,-0.572L0.356,-0L0.144,-0Z" style="fill:rgb(102,102,102);fill-opacity:0.87;fill-rule:nonzero;"/>
            </g>
            <g transform="matrix(21.3333,0,0,21.3333,48.7141,42.6451)">
                <path d="M0.281,0.012C0.209,0.012 0.149,-0.015 0.102,-0.068C0.054,-0.122 0.03,-0.194 0.03,-0.286C0.03,-0.375 0.053,-0.447 0.099,-0.502C0.144,-0.557 0.199,-0.584 0.262,-0.584C0.327,-0.584 0.378,-0.559 0.413,-0.508C0.448,-0.457 0.466,-0.391 0.466,-0.31C0.466,-0.285 0.464,-0.26 0.46,-0.232L0.203,-0.232C0.214,-0.159 0.248,-0.122 0.305,-0.122C0.328,-0.122 0.355,-0.131 0.387,-0.148L0.446,-0.042C0.399,-0.006 0.344,0.012 0.281,0.012ZM0.2,-0.352L0.316,-0.352C0.316,-0.417 0.299,-0.45 0.265,-0.45C0.248,-0.45 0.234,-0.442 0.222,-0.425C0.21,-0.408 0.203,-0.383 0.2,-0.352Z" style="fill:rgb(102,102,102);fill-opacity:0.87;fill-rule:nonzero;"/>
            </g>
            <g transform="matrix(21.3333,0,0,21.3333,59.3807,42.6451)">
                <path d="M0.234,0.014C0.162,0.014 0.092,-0.013 0.023,-0.067L0.102,-0.177C0.133,-0.155 0.158,-0.139 0.176,-0.13C0.194,-0.122 0.215,-0.117 0.237,-0.117C0.276,-0.117 0.295,-0.132 0.295,-0.162C0.295,-0.169 0.293,-0.175 0.291,-0.18C0.288,-0.186 0.282,-0.191 0.274,-0.196C0.267,-0.201 0.26,-0.206 0.254,-0.208C0.249,-0.211 0.239,-0.216 0.224,-0.222C0.209,-0.228 0.199,-0.233 0.191,-0.236C0.173,-0.245 0.157,-0.253 0.144,-0.262C0.13,-0.27 0.115,-0.281 0.1,-0.295C0.085,-0.309 0.073,-0.325 0.064,-0.344C0.056,-0.363 0.052,-0.383 0.052,-0.405C0.052,-0.459 0.071,-0.503 0.11,-0.536C0.149,-0.569 0.2,-0.585 0.264,-0.585C0.293,-0.585 0.32,-0.581 0.346,-0.573C0.371,-0.565 0.39,-0.557 0.404,-0.549C0.417,-0.541 0.435,-0.529 0.457,-0.513L0.378,-0.406C0.358,-0.42 0.345,-0.429 0.337,-0.434C0.33,-0.438 0.32,-0.443 0.307,-0.447C0.294,-0.452 0.282,-0.454 0.269,-0.454C0.235,-0.454 0.218,-0.44 0.218,-0.413C0.218,-0.407 0.219,-0.401 0.222,-0.396C0.225,-0.39 0.23,-0.385 0.238,-0.38C0.245,-0.375 0.252,-0.372 0.258,-0.369C0.264,-0.367 0.274,-0.362 0.288,-0.357C0.302,-0.351 0.313,-0.347 0.32,-0.344C0.339,-0.335 0.355,-0.327 0.369,-0.319C0.383,-0.312 0.397,-0.301 0.413,-0.288C0.429,-0.274 0.441,-0.258 0.449,-0.238C0.458,-0.219 0.462,-0.197 0.462,-0.172C0.462,-0.118 0.442,-0.073 0.402,-0.039C0.362,-0.004 0.306,0.014 0.234,0.014Z" style="fill:rgb(102,102,102);fill-opacity:0.87;fill-rule:nonzero;"/>
            </g>
            <g transform="matrix(21.3333,0,0,21.3333,80.7141,42.6451)">
                <path d="M0.318,0.012C0.249,0.012 0.198,-0.008 0.166,-0.047C0.133,-0.087 0.116,-0.142 0.116,-0.212L0.116,-0.432L0.022,-0.432L0.022,-0.566L0.126,-0.572L0.148,-0.724L0.296,-0.724L0.296,-0.572L0.446,-0.572L0.446,-0.432L0.296,-0.432L0.296,-0.214C0.296,-0.155 0.32,-0.125 0.368,-0.125C0.386,-0.125 0.407,-0.129 0.43,-0.138L0.46,-0.012C0.409,0.004 0.361,0.012 0.318,0.012Z" style="fill:rgb(102,102,102);fill-opacity:0.87;fill-rule:nonzero;"/>
            </g>
            <g transform="matrix(21.3333,0,0,21.3333,91.3807,42.6451)">
                <path d="M0.072,-0L0.072,-0.572L0.216,-0.572L0.228,-0.472L0.234,-0.472C0.279,-0.547 0.332,-0.584 0.394,-0.584C0.419,-0.584 0.449,-0.579 0.482,-0.568L0.448,-0.416C0.422,-0.425 0.399,-0.43 0.378,-0.43C0.351,-0.43 0.326,-0.421 0.303,-0.403C0.281,-0.386 0.264,-0.359 0.252,-0.322L0.252,-0L0.072,-0Z" style="fill:rgb(102,102,102);fill-opacity:0.87;fill-rule:nonzero;"/>
            </g>
            <g transform="matrix(21.3333,0,0,21.3333,101.402,42.6451)">
                <path d="M0.168,0.012C0.124,0.012 0.089,-0.003 0.065,-0.033C0.041,-0.062 0.028,-0.102 0.028,-0.15C0.028,-0.267 0.114,-0.34 0.286,-0.368C0.285,-0.392 0.279,-0.411 0.266,-0.424C0.253,-0.438 0.239,-0.444 0.224,-0.444C0.196,-0.444 0.156,-0.43 0.104,-0.402L0.04,-0.518C0.118,-0.562 0.191,-0.584 0.26,-0.584C0.321,-0.584 0.37,-0.564 0.408,-0.523C0.445,-0.483 0.464,-0.423 0.464,-0.344L0.464,-0L0.32,-0L0.306,-0.062L0.302,-0.062C0.267,-0.013 0.222,0.012 0.168,0.012ZM0.232,-0.124C0.255,-0.124 0.272,-0.137 0.286,-0.164L0.286,-0.262C0.253,-0.253 0.23,-0.242 0.217,-0.228C0.205,-0.213 0.198,-0.194 0.198,-0.17C0.198,-0.139 0.21,-0.124 0.232,-0.124Z" style="fill:rgb(102,102,102);fill-opacity:0.87;fill-rule:nonzero;"/>
            </g>
            <g transform="matrix(21.3333,0,0,21.3333,112.068,42.6451)">
                <path d="M0.036,-0L0.036,-0.572L0.18,-0.572L0.192,-0.508L0.196,-0.508C0.234,-0.559 0.281,-0.584 0.337,-0.584C0.424,-0.584 0.468,-0.52 0.468,-0.392L0.468,-0L0.288,-0L0.288,-0.376C0.288,-0.398 0.286,-0.413 0.281,-0.421C0.277,-0.43 0.269,-0.434 0.257,-0.434C0.238,-0.434 0.224,-0.418 0.216,-0.388L0.216,-0L0.036,-0Z" style="fill:rgb(102,102,102);fill-opacity:0.87;fill-rule:nonzero;"/>
            </g>
            <g transform="matrix(21.3333,0,0,21.3333,122.735,42.6451)">
                <path d="M0.234,0.014C0.162,0.014 0.092,-0.013 0.023,-0.067L0.102,-0.177C0.133,-0.155 0.158,-0.139 0.176,-0.13C0.194,-0.122 0.215,-0.117 0.237,-0.117C0.276,-0.117 0.295,-0.132 0.295,-0.162C0.295,-0.169 0.293,-0.175 0.291,-0.18C0.288,-0.186 0.282,-0.191 0.274,-0.196C0.267,-0.201 0.26,-0.206 0.254,-0.208C0.249,-0.211 0.239,-0.216 0.224,-0.222C0.209,-0.228 0.199,-0.233 0.191,-0.236C0.173,-0.245 0.157,-0.253 0.144,-0.262C0.13,-0.27 0.115,-0.281 0.1,-0.295C0.085,-0.309 0.073,-0.325 0.064,-0.344C0.056,-0.363 0.052,-0.383 0.052,-0.405C0.052,-0.459 0.071,-0.503 0.11,-0.536C0.149,-0.569 0.2,-0.585 0.264,-0.585C0.293,-0.585 0.32,-0.581 0.346,-0.573C0.371,-0.565 0.39,-0.557 0.404,-0.549C0.417,-0.541 0.435,-0.529 0.457,-0.513L0.378,-0.406C0.358,-0.42 0.345,-0.429 0.337,-0.434C0.33,-0.438 0.32,-0.443 0.307,-0.447C0.294,-0.452 0.282,-0.454 0.269,-0.454C0.235,-0.454 0.218,-0.44 0.218,-0.413C0.218,-0.407 0.219,-0.401 0.222,-0.396C0.225,-0.39 0.23,-0.385 0.238,-0.38C0.245,-0.375 0.252,-0.372 0.258,-0.369C0.264,-0.367 0.274,-0.362 0.288,-0.357C0.302,-0.351 0.313,-0.347 0.32,-0.344C0.339,-0.335 0.355,-0.327 0.369,-0.319C0.383,-0.312 0.397,-0.301 0.413,-0.288C0.429,-0.274 0.441,-0.258 0.449,-0.238C0.458,-0.219 0.462,-0.197 0.462,-0.172C0.462,-0.118 0.442,-0.073 0.402,-0.039C0.362,-0.004 0.306,0.014 0.234,0.014Z" style="fill:rgb(102,102,102);fill-opacity:0.87;fill-rule:nonzero;"/>
            </g>
            <g transform="matrix(21.3333,0,0,21.3333,133.402,42.6451)">
                <path d="M0.296,0.014C0.222,0.014 0.161,-0.013 0.113,-0.067C0.064,-0.121 0.04,-0.194 0.04,-0.286C0.04,-0.378 0.066,-0.451 0.119,-0.504C0.171,-0.558 0.235,-0.585 0.31,-0.585C0.369,-0.585 0.418,-0.566 0.457,-0.528L0.374,-0.415C0.357,-0.434 0.34,-0.443 0.321,-0.443C0.291,-0.443 0.266,-0.429 0.249,-0.4C0.231,-0.372 0.222,-0.334 0.222,-0.286C0.222,-0.24 0.231,-0.202 0.25,-0.173C0.268,-0.144 0.291,-0.13 0.317,-0.13C0.346,-0.13 0.372,-0.142 0.396,-0.166L0.465,-0.05C0.423,-0.007 0.366,0.014 0.296,0.014Z" style="fill:rgb(102,102,102);fill-opacity:0.87;fill-rule:nonzero;"/>
            </g>
            <g transform="matrix(21.3333,0,0,21.3333,144.068,42.6451)">
                <path d="M0.072,-0L0.072,-0.572L0.216,-0.572L0.228,-0.472L0.234,-0.472C0.279,-0.547 0.332,-0.584 0.394,-0.584C0.419,-0.584 0.449,-0.579 0.482,-0.568L0.448,-0.416C0.422,-0.425 0.399,-0.43 0.378,-0.43C0.351,-0.43 0.326,-0.421 0.303,-0.403C0.281,-0.386 0.264,-0.359 0.252,-0.322L0.252,-0L0.072,-0Z" style="fill:rgb(102,102,102);fill-opacity:0.87;fill-rule:nonzero;"/>
            </g>
            <g transform="matrix(21.3333,0,0,21.3333,154.735,42.6451)">
                <path d="M0.202,-0L0.202,-0.432L0.052,-0.432L0.052,-0.572L0.382,-0.572L0.382,-0L0.202,-0ZM0.357,-0.678C0.339,-0.661 0.314,-0.652 0.284,-0.652C0.254,-0.652 0.23,-0.661 0.21,-0.678C0.191,-0.695 0.182,-0.717 0.182,-0.744C0.182,-0.771 0.191,-0.793 0.21,-0.811C0.23,-0.829 0.254,-0.838 0.284,-0.838C0.314,-0.838 0.339,-0.829 0.357,-0.811C0.376,-0.793 0.386,-0.771 0.386,-0.744C0.386,-0.717 0.376,-0.695 0.357,-0.678Z" style="fill:rgb(102,102,102);fill-opacity:0.87;fill-rule:nonzero;"/>
            </g>
            <g transform="matrix(21.3333,0,0,21.3333,165.402,42.6451)">
                <path d="M0.3,0.014C0.26,0.014 0.226,-0.011 0.198,-0.06L0.192,-0.06L0.18,-0L0.04,-0L0.04,-0.774L0.218,-0.774L0.218,-0.62L0.214,-0.534C0.242,-0.567 0.272,-0.584 0.306,-0.584C0.358,-0.584 0.4,-0.56 0.43,-0.511C0.46,-0.462 0.476,-0.39 0.476,-0.296C0.476,-0.194 0.458,-0.117 0.424,-0.064C0.39,-0.012 0.349,0.014 0.3,0.014ZM0.248,-0.132C0.255,-0.132 0.262,-0.136 0.268,-0.145C0.274,-0.153 0.28,-0.17 0.285,-0.195C0.29,-0.221 0.292,-0.253 0.292,-0.292C0.292,-0.391 0.279,-0.44 0.254,-0.44C0.24,-0.44 0.228,-0.428 0.218,-0.402L0.218,-0.166C0.224,-0.143 0.234,-0.132 0.248,-0.132Z" style="fill:rgb(102,102,102);fill-opacity:0.87;fill-rule:nonzero;"/>
            </g>
            <g transform="matrix(21.3333,0,0,21.3333,176.068,42.6451)">
                <path d="M0.281,0.012C0.209,0.012 0.149,-0.015 0.102,-0.068C0.054,-0.122 0.03,-0.194 0.03,-0.286C0.03,-0.375 0.053,-0.447 0.099,-0.502C0.144,-0.557 0.199,-0.584 0.262,-0.584C0.327,-0.584 0.378,-0.559 0.413,-0.508C0.448,-0.457 0.466,-0.391 0.466,-0.31C0.466,-0.285 0.464,-0.26 0.46,-0.232L0.203,-0.232C0.214,-0.159 0.248,-0.122 0.305,-0.122C0.328,-0.122 0.355,-0.131 0.387,-0.148L0.446,-0.042C0.399,-0.006 0.344,0.012 0.281,0.012ZM0.2,-0.352L0.316,-0.352C0.316,-0.417 0.299,-0.45 0.265,-0.45C0.248,-0.45 0.234,-0.442 0.222,-0.425C0.21,-0.408 0.203,-0.383 0.2,-0.352Z" style="fill:rgb(102,102,102);fill-opacity:0.87;fill-rule:nonzero;"/>
            </g>
            <g transform="matrix(21.3333,0,0,21.3333,186.735,42.6451)">
                <path d="M0.2,0.014C0.146,0.014 0.103,-0.011 0.072,-0.062C0.04,-0.112 0.024,-0.187 0.024,-0.286C0.024,-0.383 0.041,-0.457 0.074,-0.508C0.107,-0.559 0.147,-0.584 0.194,-0.584C0.232,-0.584 0.263,-0.568 0.286,-0.536L0.282,-0.622L0.282,-0.774L0.46,-0.774L0.46,-0L0.314,-0L0.3,-0.054L0.298,-0.054C0.269,-0.009 0.236,0.014 0.2,0.014ZM0.25,-0.132C0.264,-0.132 0.275,-0.147 0.282,-0.178L0.282,-0.416C0.274,-0.432 0.262,-0.44 0.248,-0.44C0.241,-0.44 0.234,-0.436 0.229,-0.427C0.223,-0.418 0.217,-0.402 0.213,-0.378C0.208,-0.354 0.206,-0.323 0.206,-0.286C0.206,-0.183 0.221,-0.132 0.25,-0.132Z" style="fill:rgb(102,102,102);fill-opacity:0.87;fill-rule:nonzero;"/>
            </g>
            <g transform="matrix(21.3333,0,0,21.3333,208.068,42.6451)">
                <path d="M0.158,-0L0.158,-0.252L0,-0.748L0.184,-0.748L0.22,-0.574C0.234,-0.503 0.243,-0.449 0.248,-0.412L0.252,-0.412C0.257,-0.445 0.267,-0.499 0.282,-0.574L0.318,-0.748L0.5,-0.748L0.338,-0.252L0.338,-0L0.158,-0Z" style="fill:rgb(102,102,102);fill-opacity:0.87;fill-rule:nonzero;"/>
            </g>
            <g transform="matrix(21.3333,0,0,21.3333,217.464,42.6451)">
                <path d="M0.25,0.012C0.186,0.012 0.133,-0.014 0.089,-0.066C0.046,-0.118 0.024,-0.191 0.024,-0.286C0.024,-0.381 0.046,-0.455 0.089,-0.506C0.133,-0.558 0.186,-0.584 0.25,-0.584C0.314,-0.584 0.368,-0.558 0.411,-0.507C0.454,-0.455 0.476,-0.382 0.476,-0.286C0.476,-0.19 0.454,-0.117 0.411,-0.065C0.368,-0.014 0.314,0.012 0.25,0.012ZM0.25,-0.132C0.279,-0.132 0.294,-0.183 0.294,-0.286C0.294,-0.39 0.279,-0.442 0.25,-0.442C0.234,-0.442 0.223,-0.43 0.216,-0.405C0.209,-0.38 0.206,-0.34 0.206,-0.286C0.206,-0.232 0.209,-0.193 0.216,-0.168C0.223,-0.144 0.234,-0.132 0.25,-0.132Z" style="fill:rgb(102,102,102);fill-opacity:0.87;fill-rule:nonzero;"/>
            </g>
            <g transform="matrix(21.3333,0,0,21.3333,228.131,42.6451)">
                <path d="M0.157,0.012C0.07,0.012 0.026,-0.052 0.026,-0.18L0.026,-0.572L0.206,-0.572L0.206,-0.202C0.206,-0.179 0.208,-0.162 0.212,-0.152C0.216,-0.143 0.224,-0.138 0.235,-0.138C0.253,-0.138 0.266,-0.153 0.274,-0.184L0.274,-0.572L0.454,-0.572L0.454,-0L0.31,-0L0.298,-0.064L0.294,-0.064C0.256,-0.014 0.211,0.012 0.157,0.012Z" style="fill:rgb(102,102,102);fill-opacity:0.87;fill-rule:nonzero;"/>
            </g>
            <g transform="matrix(21.3333,0,0,21.3333,238.381,42.6451)">
                <path d="M0.16,-0L0.16,-0.598L0.016,-0.598L0.016,-0.748L0.484,-0.748L0.484,-0.598L0.34,-0.598L0.34,-0L0.16,-0Z" style="fill:rgb(102,102,102);fill-opacity:0.87;fill-rule:nonzero;"/>
            </g>
            <g transform="matrix(21.3333,0,0,21.3333,248.193,42.6451)">
                <path d="M0.157,0.012C0.07,0.012 0.026,-0.052 0.026,-0.18L0.026,-0.572L0.206,-0.572L0.206,-0.202C0.206,-0.179 0.208,-0.162 0.212,-0.152C0.216,-0.143 0.224,-0.138 0.235,-0.138C0.253,-0.138 0.266,-0.153 0.274,-0.184L0.274,-0.572L0.454,-0.572L0.454,-0L0.31,-0L0.298,-0.064L0.294,-0.064C0.256,-0.014 0.211,0.012 0.157,0.012Z" style="fill:rgb(102,102,102);fill-opacity:0.87;fill-rule:nonzero;"/>
            </g>
            <g transform="matrix(21.3333,0,0,21.3333,258.86,42.6451)">
                <path d="M0.3,0.014C0.26,0.014 0.226,-0.011 0.198,-0.06L0.192,-0.06L0.18,-0L0.04,-0L0.04,-0.774L0.218,-0.774L0.218,-0.62L0.214,-0.534C0.242,-0.567 0.272,-0.584 0.306,-0.584C0.358,-0.584 0.4,-0.56 0.43,-0.511C0.46,-0.462 0.476,-0.39 0.476,-0.296C0.476,-0.194 0.458,-0.117 0.424,-0.064C0.39,-0.012 0.349,0.014 0.3,0.014ZM0.248,-0.132C0.255,-0.132 0.262,-0.136 0.268,-0.145C0.274,-0.153 0.28,-0.17 0.285,-0.195C0.29,-0.221 0.292,-0.253 0.292,-0.292C0.292,-0.391 0.279,-0.44 0.254,-0.44C0.24,-0.44 0.228,-0.428 0.218,-0.402L0.218,-0.166C0.224,-0.143 0.234,-0.132 0.248,-0.132Z" style="fill:rgb(102,102,102);fill-opacity:0.87;fill-rule:nonzero;"/>
            </g>
            <g transform="matrix(21.3333,0,0,21.3333,269.527,42.6451)">
                <path d="M0.281,0.012C0.209,0.012 0.149,-0.015 0.102,-0.068C0.054,-0.122 0.03,-0.194 0.03,-0.286C0.03,-0.375 0.053,-0.447 0.099,-0.502C0.144,-0.557 0.199,-0.584 0.262,-0.584C0.327,-0.584 0.378,-0.559 0.413,-0.508C0.448,-0.457 0.466,-0.391 0.466,-0.31C0.466,-0.285 0.464,-0.26 0.46,-0.232L0.203,-0.232C0.214,-0.159 0.248,-0.122 0.305,-0.122C0.328,-0.122 0.355,-0.131 0.387,-0.148L0.446,-0.042C0.399,-0.006 0.344,0.012 0.281,0.012ZM0.2,-0.352L0.316,-0.352C0.316,-0.417 0.299,-0.45 0.265,-0.45C0.248,-0.45 0.234,-0.442 0.222,-0.425C0.21,-0.408 0.203,-0.383 0.2,-0.352Z" style="fill:rgb(102,102,102);fill-opacity:0.87;fill-rule:nonzero;"/>
            </g>
            <g transform="matrix(21.3333,0,0,21.3333,290.86,42.6451)">
                <path d="M0.494,-0.764L0.462,-0.634C0.439,-0.644 0.417,-0.648 0.396,-0.648C0.352,-0.648 0.33,-0.624 0.33,-0.576L0.33,-0.572L0.444,-0.572L0.444,-0.432L0.33,-0.432L0.33,-0L0.15,-0L0.15,-0.432L0.048,-0.432L0.048,-0.566L0.15,-0.571L0.15,-0.574C0.15,-0.638 0.168,-0.69 0.203,-0.729C0.237,-0.768 0.293,-0.788 0.368,-0.788C0.413,-0.788 0.455,-0.78 0.494,-0.764Z" style="fill:rgb(102,102,102);fill-opacity:0.87;fill-rule:nonzero;"/>
            </g>
            <g transform="matrix(21.3333,0,0,21.3333,301.318,42.6451)">
                <path d="M0.25,0.012C0.186,0.012 0.133,-0.014 0.089,-0.066C0.046,-0.118 0.024,-0.191 0.024,-0.286C0.024,-0.381 0.046,-0.455 0.089,-0.506C0.133,-0.558 0.186,-0.584 0.25,-0.584C0.314,-0.584 0.368,-0.558 0.411,-0.507C0.454,-0.455 0.476,-0.382 0.476,-0.286C0.476,-0.19 0.454,-0.117 0.411,-0.065C0.368,-0.014 0.314,0.012 0.25,0.012ZM0.25,-0.132C0.279,-0.132 0.294,-0.183 0.294,-0.286C0.294,-0.39 0.279,-0.442 0.25,-0.442C0.234,-0.442 0.223,-0.43 0.216,-0.405C0.209,-0.38 0.206,-0.34 0.206,-0.286C0.206,-0.232 0.209,-0.193 0.216,-0.168C0.223,-0.144 0.234,-0.132 0.25,-0.132Z" style="fill:rgb(102,102,102);fill-opacity:0.87;fill-rule:nonzero;"/>
            </g>
            <g transform="matrix(21.3333,0,0,21.3333,311.985,42.6451)">
                <path d="M0.072,-0L0.072,-0.572L0.216,-0.572L0.228,-0.472L0.234,-0.472C0.279,-0.547 0.332,-0.584 0.394,-0.584C0.419,-0.584 0.449,-0.579 0.482,-0.568L0.448,-0.416C0.422,-0.425 0.399,-0.43 0.378,-0.43C0.351,-0.43 0.326,-0.421 0.303,-0.403C0.281,-0.386 0.264,-0.359 0.252,-0.322L0.252,-0L0.072,-0Z" style="fill:rgb(102,102,102);fill-opacity:0.87;fill-rule:nonzero;"/>
            </g>
            <g transform="matrix(21.3333,0,0,21.3333,333.318,42.6451)">
                <path d="M0.158,-0L0.158,-0.252L0,-0.748L0.184,-0.748L0.22,-0.574C0.234,-0.503 0.243,-0.449 0.248,-0.412L0.252,-0.412C0.257,-0.445 0.267,-0.499 0.282,-0.574L0.318,-0.748L0.5,-0.748L0.338,-0.252L0.338,-0L0.158,-0Z" style="fill:rgb(102,102,102);fill-opacity:0.87;fill-rule:nonzero;"/>
            </g>
            <g transform="matrix(21.3333,0,0,21.3333,342.714,42.6451)">
                <path d="M0.25,0.012C0.186,0.012 0.133,-0.014 0.089,-0.066C0.046,-0.118 0.024,-0.191 0.024,-0.286C0.024,-0.381 0.046,-0.455 0.089,-0.506C0.133,-0.558 0.186,-0.584 0.25,-0.584C0.314,-0.584 0.368,-0.558 0.411,-0.507C0.454,-0.455 0.476,-0.382 0.476,-0.286C0.476,-0.19 0.454,-0.117 0.411,-0.065C0.368,-0.014 0.314,0.012 0.25,0.012ZM0.25,-0.132C0.279,-0.132 0.294,-0.183 0.294,-0.286C0.294,-0.39 0.279,-0.442 0.25,-0.442C0.234,-0.442 0.223,-0.43 0.216,-0.405C0.209,-0.38 0.206,-0.34 0.206,-0.286C0.206,-0.232 0.209,-0.193 0.216,-0.168C0.223,-0.144 0.234,-0.132 0.25,-0.132Z" style="fill:rgb(102,102,102);fill-opacity:0.87;fill-rule:nonzero;"/>
            </g>
            <g transform="matrix(21.3333,0,0,21.3333,353.381,42.6451)">
                <path d="M0.157,0.012C0.07,0.012 0.026,-0.052 0.026,-0.18L0.026,-0.572L0.206,-0.572L0.206,-0.202C0.206,-0.179 0.208,-0.162 0.212,-0.152C0.216,-0.143 0.224,-0.138 0.235,-0.138C0.253,-0.138 0.266,-0.153 0.274,-0.184L0.274,-0.572L0.454,-0.572L0.454,-0L0.31,-0L0.298,-0.064L0.294,-0.064C0.256,-0.014 0.211,0.012 0.157,0.012Z" style="fill:rgb(102,102,102);fill-opacity:0.87;fill-rule:nonzero;"/>
            </g>
            <g transform="matrix(21.3333,0,0,21.3333,364.047,42.6451)">
                <path d="M0.327,-0.019C0.307,0.002 0.281,0.012 0.25,0.012C0.219,0.012 0.193,0.001 0.172,-0.019C0.152,-0.04 0.142,-0.066 0.142,-0.098C0.142,-0.128 0.152,-0.154 0.173,-0.176C0.194,-0.197 0.219,-0.208 0.25,-0.208C0.281,-0.208 0.306,-0.197 0.327,-0.176C0.348,-0.154 0.358,-0.128 0.358,-0.098C0.358,-0.066 0.348,-0.039 0.327,-0.019Z" style="fill:rgb(102,102,102);fill-opacity:0.87;fill-rule:nonzero;"/>
            </g>
        </g>
    </g>
</svg>
