<?xml version="1.0" standalone="no"?>
<!DOCTYPE svg PUBLIC "-//W3C//DTD SVG 20010904//EN"
 "http://www.w3.org/TR/2001/REC-SVG-20010904/DTD/svg10.dtd">
<svg version="1.0"
  xmlns="http://www.w3.org/2000/svg" width="512.000000pt" height="512.000000pt" viewBox="0 0 512.000000 512.000000" preserveAspectRatio="xMidYMid meet">
  <metadata>
Created by potrace 1.14, written by Peter Selinger 2001-2017
  </metadata>
  <g transform="translate(0.000000,512.000000) scale(0.100000,-0.100000)" fill="#000000" stroke="none">
    <path d="M100 4470 c-7 -5 11 -65 145 -480 24 -74 71 -223 105 -330 34 -107
79 -249 100 -315 21 -66 71 -221 110 -345 39 -124 75 -236 80 -250 5 -14 40
-124 79 -245 38 -121 93 -292 123 -380 l53 -160 5 -660 5 -660 458 0 457 0 0
645 0 646 50 154 c28 85 89 270 135 410 46 140 152 464 235 720 84 256 174
530 200 610 26 80 78 240 115 355 36 116 68 215 70 220 2 6 4 -150 4 -345 l1
-355 368 0 367 0 5 -1530 5 -1530 455 0 455 0 5 1530 5 1530 368 0 367 0 0
385 0 385 -1655 0 c-910 0 -1655 -1 -1655 -2 0 -1 -18 -89 -41 -195 -22 -106
-43 -206 -45 -223 -3 -16 -9 -46 -14 -65 -15 -60 -102 -484 -115 -560 -3 -19
-15 -80 -26 -135 -12 -55 -23 -111 -25 -125 -54 -321 -77 -430 -90 -417 -4 4
-28 148 -49 297 -11 74 -111 597 -140 730 -8 36 -17 76 -19 90 -5 27 -32 156
-48 230 -5 25 -11 56 -14 70 -3 13 -12 56 -20 95 -16 70 -19 89 -28 135 -2 14
-7 36 -10 50 l-7 25 -460 0 c-254 0 -464 -2 -469 -5z"/>
  </g>
</svg>
